<svg width="106" height="105" viewBox="0 0 106 105" fill="none" xmlns="http://www.w3.org/2000/svg">
<path d="M74.6303 76.953H40.706C33.4959 76.953 27.6416 70.9074 27.6416 63.4617V62.1571C27.6416 54.7114 33.4959 48.6657 40.706 48.6657H65.2942C69.0841 48.6657 72.1962 45.4838 72.1962 41.5382C72.1962 37.5926 69.1149 34.4107 65.2942 34.4107H30.7228V28.0469H65.2942C72.5043 28.0469 78.3586 34.0925 78.3586 41.5382C78.3586 48.9839 72.5043 55.0296 65.2942 55.0296H40.706C36.9161 55.0296 33.8041 58.2115 33.8041 62.1571V63.4617C33.8041 67.3754 36.8853 70.5892 40.706 70.5892H74.6303V76.953Z" fill="#00FF00"/>
<path d="M30.7231 41.634C36.2877 41.634 40.7987 36.9756 40.7987 31.2291C40.7987 25.4826 36.2877 20.8242 30.7231 20.8242C25.1585 20.8242 20.6475 25.4826 20.6475 31.2291C20.6475 36.9756 25.1585 41.634 30.7231 41.634Z" fill="white"/>
<path d="M75.2768 84.176C80.8414 84.176 85.3524 79.5176 85.3524 73.7711C85.3524 68.0246 80.8414 63.3662 75.2768 63.3662C69.7122 63.3662 65.2012 68.0246 65.2012 73.7711C65.2012 79.5176 69.7122 84.176 75.2768 84.176Z" fill="#00FF00"/>
</svg>
