<svg width="38" height="38" viewBox="0 0 38 38" fill="none" xmlns="http://www.w3.org/2000/svg">
<path d="M34.3414 29.5589L25.9498 21.1672H24.3823L20.3606 25.1889V26.7564L28.7523 35.1481C29.3698 35.7656 30.3673 35.7656 30.9848 35.1481L34.3414 31.7914C34.9589 31.1897 34.9589 30.1764 34.3414 29.5589ZM29.8606 31.8072L23.1473 25.0939L24.2714 23.9697L30.9848 30.683L29.8606 31.8072Z" fill="#FFBF00"/>
<path d="M27.4856 16.9239L29.7181 14.6914L33.0748 18.048C34.9273 16.1955 34.9273 13.1872 33.0748 11.3347L27.4698 5.72971L25.2373 7.96221V3.49721L24.1289 2.37305L18.5239 7.97805L19.6481 9.10221H24.1289L21.8964 11.3347L23.5748 13.013L18.9989 17.5889L12.4598 11.0497V8.80138L7.6781 4.01971L3.19727 8.50055L7.99477 13.298H10.2273L16.7664 19.8372L15.4206 21.183H12.0639L3.67227 29.5747C3.05477 30.1922 3.05477 31.1897 3.67227 31.8072L7.02893 35.1639C7.64643 35.7814 8.64393 35.7814 9.26143 35.1639L17.6531 26.7722V23.4155L25.8073 15.2614L27.4856 16.9239ZM14.8506 25.078L8.13727 31.7914L7.0131 30.6672L13.7264 23.9539L14.8506 25.078Z" fill="#FFBF00"/>
</svg>
