<svg width="26" height="24" viewBox="0 0 26 24" fill="none" xmlns="http://www.w3.org/2000/svg">
<g clip-path="url(#clip0_447_2566)">
<path d="M13.2141 6C12.3911 6 11.5865 6.2346 10.9022 6.67412C10.2179 7.11365 9.68447 7.73836 9.3695 8.46927C9.05454 9.20017 8.97213 10.0044 9.1327 10.7804C9.29327 11.5563 9.6896 12.269 10.2716 12.8284C10.8536 13.3878 11.5951 13.7688 12.4023 13.9231C13.2095 14.0775 14.0463 13.9983 14.8067 13.6955C15.5671 13.3928 16.217 12.8801 16.6742 12.2223C17.1315 11.5645 17.3756 10.7911 17.3756 10C17.3756 8.93913 16.9371 7.92172 16.1567 7.17157C15.3763 6.42143 14.3178 6 13.2141 6ZM13.2141 12C12.8026 12 12.4003 11.8827 12.0582 11.6629C11.716 11.4432 11.4493 11.1308 11.2918 10.7654C11.1343 10.3999 11.0931 9.99778 11.1734 9.60982C11.2537 9.22186 11.4519 8.86549 11.7429 8.58579C12.0339 8.30608 12.4046 8.1156 12.8082 8.03843C13.2118 7.96126 13.6302 8.00087 14.0104 8.15224C14.3906 8.30362 14.7156 8.55996 14.9442 8.88886C15.1728 9.21776 15.2949 9.60444 15.2949 10C15.2949 10.5304 15.0756 11.0391 14.6854 11.4142C14.2952 11.7893 13.766 12 13.2141 12Z" fill="#FFBF00"/>
<path d="M13.2147 24.0003C12.3386 24.0046 11.4743 23.8071 10.6939 23.4243C9.91364 23.0416 9.24009 22.4847 8.72969 21.8003C4.76491 16.5433 2.75391 12.5913 2.75391 10.0533C2.75391 7.38654 3.85602 4.82901 5.81779 2.94333C7.77956 1.05765 10.4403 -0.00170898 13.2147 -0.00170898C15.989 -0.00170898 18.6498 1.05765 20.6115 2.94333C22.5733 4.82901 23.6754 7.38654 23.6754 10.0533C23.6754 12.5913 21.6644 16.5433 17.6996 21.8003C17.1892 22.4847 16.5157 23.0416 15.7354 23.4243C14.9551 23.8071 14.0907 24.0046 13.2147 24.0003ZM13.2147 2.18129C11.0428 2.18367 8.96067 3.01402 7.42496 4.49016C5.88925 5.96631 5.02539 7.96771 5.02292 10.0553C5.02292 12.0653 6.9923 15.7823 10.567 20.5213C10.8704 20.9231 11.2685 21.2501 11.7287 21.4756C12.1889 21.701 12.6981 21.8186 13.2147 21.8186C13.7312 21.8186 14.2404 21.701 14.7006 21.4756C15.1608 21.2501 15.5589 20.9231 15.8624 20.5213C19.437 15.7823 21.4064 12.0653 21.4064 10.0553C21.4039 7.96771 20.5401 5.96631 19.0044 4.49016C17.4686 3.01402 15.3865 2.18367 13.2147 2.18129Z" fill="#FFBF00"/>
</g>
<defs>
<clipPath id="clip0_447_2566">
<rect width="24.9685" height="24" fill="white" transform="translate(0.730469)"/>
</clipPath>
</defs>
</svg>
