<svg width="241" height="212" viewBox="0 0 241 212" fill="none" xmlns="http://www.w3.org/2000/svg">
<path d="M21.0566 193.465C21.0566 200.194 17.9212 203.559 11.6504 203.559C5.56706 203.559 2.52539 200.272 2.52539 193.699V180.762H7.58789V193.762C7.58789 197.387 9.00456 199.199 11.8379 199.199C14.6191 199.199 16.0098 197.449 16.0098 193.949V180.762H21.0566V193.465ZM24.416 202.746V198.746C25.2285 199.236 26.0358 199.6 26.8379 199.84C27.6504 200.079 28.416 200.199 29.1348 200.199C30.0098 200.199 30.6973 200.079 31.1973 199.84C31.7077 199.6 31.9629 199.236 31.9629 198.746C31.9629 198.434 31.8483 198.173 31.6191 197.965C31.39 197.757 31.0931 197.574 30.7285 197.418C30.3743 197.262 29.9837 197.121 29.5566 196.996C29.1296 196.871 28.7181 196.73 28.3223 196.574C27.6868 196.335 27.1243 196.079 26.6348 195.809C26.1556 195.527 25.7493 195.204 25.416 194.84C25.0931 194.475 24.8431 194.053 24.666 193.574C24.4993 193.095 24.416 192.527 24.416 191.871C24.416 190.975 24.6087 190.204 24.9941 189.559C25.39 188.913 25.9108 188.387 26.5566 187.98C27.2129 187.564 27.9577 187.262 28.791 187.074C29.6348 186.876 30.5098 186.777 31.416 186.777C32.1243 186.777 32.8431 186.835 33.5723 186.949C34.3014 187.053 35.0202 187.21 35.7285 187.418V191.23C35.1035 190.866 34.4316 190.595 33.7129 190.418C33.0046 190.23 32.3066 190.137 31.6191 190.137C31.2962 190.137 30.9889 190.168 30.6973 190.23C30.416 190.283 30.166 190.366 29.9473 190.48C29.7285 190.585 29.5566 190.725 29.4316 190.902C29.3066 191.069 29.2441 191.262 29.2441 191.48C29.2441 191.772 29.3379 192.022 29.5254 192.23C29.7129 192.439 29.9577 192.621 30.2598 192.777C30.5618 192.923 30.8952 193.059 31.2598 193.184C31.6348 193.298 32.0046 193.418 32.3691 193.543C33.0254 193.772 33.6191 194.022 34.1504 194.293C34.6816 194.564 35.1348 194.882 35.5098 195.246C35.8952 195.611 36.1868 196.038 36.3848 196.527C36.5931 197.017 36.6973 197.6 36.6973 198.277C36.6973 199.225 36.4889 200.038 36.0723 200.715C35.666 201.382 35.1191 201.928 34.4316 202.355C33.7546 202.772 32.9681 203.074 32.0723 203.262C31.1868 203.46 30.265 203.559 29.3066 203.559C27.5462 203.559 25.916 203.288 24.416 202.746ZM53.9316 196.574H43.4941C43.6608 198.897 45.1243 200.059 47.8848 200.059C49.6452 200.059 51.1921 199.642 52.5254 198.809V202.371C51.0462 203.163 49.1243 203.559 46.7598 203.559C44.1764 203.559 42.1712 202.845 40.7441 201.418C39.3171 199.98 38.6035 197.98 38.6035 195.418C38.6035 192.762 39.3743 190.658 40.916 189.105C42.4577 187.553 44.3535 186.777 46.6035 186.777C48.9368 186.777 50.7389 187.47 52.0098 188.855C53.291 190.241 53.9316 192.121 53.9316 194.496V196.574ZM49.3535 193.543C49.3535 191.251 48.4264 190.105 46.5723 190.105C45.7806 190.105 45.0931 190.434 44.5098 191.09C43.9368 191.746 43.5879 192.564 43.4629 193.543H49.3535ZM67.3066 191.621C66.7129 191.298 66.0202 191.137 65.2285 191.137C64.1556 191.137 63.3171 191.533 62.7129 192.324C62.1087 193.105 61.8066 194.173 61.8066 195.527V203.168H56.8691V187.168H61.8066V190.137H61.8691C62.6504 187.97 64.0566 186.887 66.0879 186.887C66.6087 186.887 67.015 186.949 67.3066 187.074V191.621ZM92.3848 203.168H78.9473V180.762H91.8691V184.871H83.9941V189.855H91.3223V193.949H83.9941V199.074H92.3848V203.168ZM110.947 187.168L105.666 194.918L110.916 203.168H105.229L102.916 198.855C102.729 198.512 102.505 198.027 102.244 197.402H102.182C102.025 197.84 101.812 198.309 101.541 198.809L99.2129 203.168H93.541L98.9473 195.199L93.8691 187.168H99.5879L101.869 191.652C102.171 192.246 102.385 192.746 102.51 193.152H102.572C102.739 192.663 102.963 192.152 103.244 191.621L105.572 187.168H110.947ZM118.182 201.309H118.119V210.527H113.182V187.168H118.119V189.574H118.182C119.4 187.71 121.114 186.777 123.322 186.777C125.395 186.777 126.994 187.491 128.119 188.918C129.255 190.335 129.822 192.267 129.822 194.715C129.822 197.382 129.161 199.522 127.838 201.137C126.525 202.751 124.775 203.559 122.588 203.559C120.661 203.559 119.192 202.809 118.182 201.309ZM118.041 194.746V196.027C118.041 197.132 118.333 198.033 118.916 198.73C119.499 199.428 120.265 199.777 121.213 199.777C122.338 199.777 123.208 199.345 123.822 198.48C124.447 197.605 124.76 196.371 124.76 194.777C124.76 191.965 123.666 190.559 121.479 190.559C120.468 190.559 119.64 190.944 118.994 191.715C118.359 192.475 118.041 193.486 118.041 194.746ZM147.4 196.574H136.963C137.13 198.897 138.593 200.059 141.354 200.059C143.114 200.059 144.661 199.642 145.994 198.809V202.371C144.515 203.163 142.593 203.559 140.229 203.559C137.645 203.559 135.64 202.845 134.213 201.418C132.786 199.98 132.072 197.98 132.072 195.418C132.072 192.762 132.843 190.658 134.385 189.105C135.926 187.553 137.822 186.777 140.072 186.777C142.406 186.777 144.208 187.47 145.479 188.855C146.76 190.241 147.4 192.121 147.4 194.496V196.574ZM142.822 193.543C142.822 191.251 141.895 190.105 140.041 190.105C139.249 190.105 138.562 190.434 137.979 191.09C137.406 191.746 137.057 192.564 136.932 193.543H142.822ZM160.775 191.621C160.182 191.298 159.489 191.137 158.697 191.137C157.624 191.137 156.786 191.533 156.182 192.324C155.577 193.105 155.275 194.173 155.275 195.527V203.168H150.338V187.168H155.275V190.137H155.338C156.119 187.97 157.525 186.887 159.557 186.887C160.077 186.887 160.484 186.949 160.775 187.074V191.621ZM165.713 184.637C164.88 184.637 164.197 184.392 163.666 183.902C163.135 183.402 162.869 182.793 162.869 182.074C162.869 181.335 163.135 180.73 163.666 180.262C164.197 179.793 164.88 179.559 165.713 179.559C166.557 179.559 167.239 179.793 167.76 180.262C168.291 180.73 168.557 181.335 168.557 182.074C168.557 182.824 168.291 183.439 167.76 183.918C167.239 184.397 166.557 184.637 165.713 184.637ZM168.15 203.168H163.213V187.168H168.15V203.168ZM186.682 196.574H176.244C176.411 198.897 177.874 200.059 180.635 200.059C182.395 200.059 183.942 199.642 185.275 198.809V202.371C183.796 203.163 181.874 203.559 179.51 203.559C176.926 203.559 174.921 202.845 173.494 201.418C172.067 199.98 171.354 197.98 171.354 195.418C171.354 192.762 172.124 190.658 173.666 189.105C175.208 187.553 177.104 186.777 179.354 186.777C181.687 186.777 183.489 187.47 184.76 188.855C186.041 190.241 186.682 192.121 186.682 194.496V196.574ZM182.104 193.543C182.104 191.251 181.176 190.105 179.322 190.105C178.531 190.105 177.843 190.434 177.26 191.09C176.687 191.746 176.338 192.564 176.213 193.543H182.104ZM205.072 203.168H200.15V194.277C200.15 191.798 199.265 190.559 197.494 190.559C196.64 190.559 195.937 190.887 195.385 191.543C194.833 192.199 194.557 193.033 194.557 194.043V203.168H189.619V187.168H194.557V189.699H194.619C195.796 187.751 197.51 186.777 199.76 186.777C203.301 186.777 205.072 188.975 205.072 193.371V203.168ZM221.119 202.59C220.005 203.236 218.395 203.559 216.291 203.559C213.833 203.559 211.843 202.814 210.322 201.324C208.801 199.835 208.041 197.913 208.041 195.559C208.041 192.84 208.854 190.699 210.479 189.137C212.114 187.564 214.296 186.777 217.025 186.777C218.911 186.777 220.275 187.027 221.119 187.527V191.715C220.088 190.944 218.937 190.559 217.666 190.559C216.249 190.559 215.124 190.975 214.291 191.809C213.468 192.632 213.057 193.772 213.057 195.23C213.057 196.647 213.452 197.762 214.244 198.574C215.036 199.376 216.124 199.777 217.51 199.777C218.739 199.777 219.942 199.392 221.119 198.621V202.59ZM238.744 196.574H228.307C228.473 198.897 229.937 200.059 232.697 200.059C234.458 200.059 236.005 199.642 237.338 198.809V202.371C235.859 203.163 233.937 203.559 231.572 203.559C228.989 203.559 226.984 202.845 225.557 201.418C224.13 199.98 223.416 197.98 223.416 195.418C223.416 192.762 224.187 190.658 225.729 189.105C227.27 187.553 229.166 186.777 231.416 186.777C233.749 186.777 235.551 187.47 236.822 188.855C238.104 190.241 238.744 192.121 238.744 194.496V196.574ZM234.166 193.543C234.166 191.251 233.239 190.105 231.385 190.105C230.593 190.105 229.906 190.434 229.322 191.09C228.749 191.746 228.4 192.564 228.275 193.543H234.166Z" fill="#00FF00"/>
<rect width="105" height="104.752" transform="translate(67.916 0.667969)" fill="#353535"/>
<path d="M142.045 77.439H108.121C100.911 77.439 95.0566 71.4076 95.0566 63.9795V62.678C95.0566 55.2499 100.911 49.2185 108.121 49.2185H132.709C136.499 49.2185 139.611 46.0441 139.611 42.1079C139.611 38.1716 136.53 34.9972 132.709 34.9972H98.1379V28.6484H132.709C139.919 28.6484 145.774 34.6798 145.774 42.1079C145.774 49.536 139.919 55.5673 132.709 55.5673H108.121C104.331 55.5673 101.219 58.7417 101.219 62.678V63.9795C101.219 67.884 104.3 71.0902 108.121 71.0902H142.045V77.439Z" fill="#00FF00"/>
<path d="M98.1381 42.203C103.703 42.203 108.214 37.5555 108.214 31.8227C108.214 26.0898 103.703 21.4424 98.1381 21.4424C92.5735 21.4424 88.0625 26.0898 88.0625 31.8227C88.0625 37.5555 92.5735 42.203 98.1381 42.203Z" fill="white"/>
<path d="M142.693 84.6444C148.257 84.6444 152.768 79.997 152.768 74.2641C152.768 68.5312 148.257 63.8838 142.693 63.8838C137.128 63.8838 132.617 68.5312 132.617 74.2641C132.617 79.997 137.128 84.6444 142.693 84.6444Z" fill="#00FF00"/>
<path d="M38.1953 129.01H29.4082V154.168H22.4473V129.01H13.7031V123.359H38.1953V129.01ZM57.4883 145.102H43.1367C43.3659 148.296 45.3783 149.893 49.1738 149.893C51.5944 149.893 53.7214 149.32 55.5547 148.174V153.072C53.5208 154.161 50.8783 154.705 47.627 154.705C44.0749 154.705 41.3177 153.724 39.3555 151.762C37.3932 149.785 36.4121 147.035 36.4121 143.512C36.4121 139.859 37.472 136.966 39.5918 134.832C41.7116 132.698 44.3184 131.631 47.4121 131.631C50.6204 131.631 53.0983 132.583 54.8457 134.488C56.6074 136.393 57.4883 138.979 57.4883 142.244V145.102ZM51.1934 140.934C51.1934 137.783 49.9186 136.207 47.3691 136.207C46.2806 136.207 45.3353 136.658 44.5332 137.561C43.7454 138.463 43.2656 139.587 43.0938 140.934H51.1934ZM78.1992 153.373C76.6667 154.261 74.4538 154.705 71.5605 154.705C68.1803 154.705 65.4447 153.681 63.3535 151.633C61.2624 149.585 60.2168 146.942 60.2168 143.705C60.2168 139.967 61.334 137.023 63.5684 134.875C65.8171 132.712 68.8177 131.631 72.5703 131.631C75.1628 131.631 77.0391 131.975 78.1992 132.662V138.42C76.7812 137.36 75.1986 136.83 73.4512 136.83C71.5033 136.83 69.9564 137.403 68.8105 138.549C67.679 139.68 67.1133 141.249 67.1133 143.254C67.1133 145.202 67.6576 146.734 68.7461 147.852C69.8346 148.954 71.3314 149.506 73.2363 149.506C74.9264 149.506 76.5807 148.976 78.1992 147.916V153.373ZM95.9668 153.91C94.9642 154.44 93.4531 154.705 91.4336 154.705C86.6497 154.705 84.2578 152.22 84.2578 147.25V137.174H80.6914V132.168H84.2578V127.42L91.0254 125.486V132.168H95.9668V137.174H91.0254V146.068C91.0254 148.36 91.9349 149.506 93.7539 149.506C94.4701 149.506 95.2077 149.298 95.9668 148.883V153.91ZM110.125 154.705C106.458 154.705 103.572 153.681 101.467 151.633C99.3757 149.57 98.3301 146.777 98.3301 143.254C98.3301 139.616 99.4186 136.773 101.596 134.725C103.773 132.662 106.716 131.631 110.426 131.631C114.078 131.631 116.943 132.662 119.02 134.725C121.096 136.773 122.135 139.487 122.135 142.867C122.135 146.52 121.061 149.406 118.912 151.525C116.778 153.645 113.849 154.705 110.125 154.705ZM110.297 136.83C108.693 136.83 107.447 137.382 106.559 138.484C105.671 139.587 105.227 141.148 105.227 143.168C105.227 147.393 106.931 149.506 110.34 149.506C113.591 149.506 115.217 147.336 115.217 142.996C115.217 138.885 113.577 136.83 110.297 136.83ZM139.838 153.91C138.835 154.44 137.324 154.705 135.305 154.705C130.521 154.705 128.129 152.22 128.129 147.25V137.174H124.562V132.168H128.129V127.42L134.896 125.486V132.168H139.838V137.174H134.896V146.068C134.896 148.36 135.806 149.506 137.625 149.506C138.341 149.506 139.079 149.298 139.838 148.883V153.91ZM158.035 138.291C157.219 137.847 156.266 137.625 155.178 137.625C153.702 137.625 152.549 138.169 151.719 139.258C150.888 140.332 150.473 141.8 150.473 143.662V154.168H143.684V132.168H150.473V136.25H150.559C151.633 133.271 153.566 131.781 156.359 131.781C157.076 131.781 157.634 131.867 158.035 132.039V138.291ZM179.52 154.168H173.096V151.01H173.01C171.535 153.473 169.35 154.705 166.457 154.705C164.323 154.705 162.64 154.104 161.408 152.9C160.191 151.683 159.582 150.064 159.582 148.045C159.582 143.777 162.11 141.313 167.166 140.654L173.139 139.859C173.139 137.453 171.835 136.25 169.229 136.25C166.607 136.25 164.115 137.031 161.752 138.592V133.479C162.697 132.992 163.986 132.562 165.619 132.189C167.266 131.817 168.763 131.631 170.109 131.631C176.383 131.631 179.52 134.76 179.52 141.02V154.168ZM173.139 145.23V143.748L169.143 144.264C166.937 144.55 165.834 145.546 165.834 147.25C165.834 148.023 166.099 148.661 166.629 149.162C167.173 149.649 167.904 149.893 168.82 149.893C170.095 149.893 171.133 149.456 171.936 148.582C172.738 147.694 173.139 146.577 173.139 145.23ZM201.562 153.373C200.03 154.261 197.817 154.705 194.924 154.705C191.544 154.705 188.808 153.681 186.717 151.633C184.626 149.585 183.58 146.942 183.58 143.705C183.58 139.967 184.697 137.023 186.932 134.875C189.18 132.712 192.181 131.631 195.934 131.631C198.526 131.631 200.402 131.975 201.562 132.662V138.42C200.145 137.36 198.562 136.83 196.814 136.83C194.867 136.83 193.32 137.403 192.174 138.549C191.042 139.68 190.477 141.249 190.477 143.254C190.477 145.202 191.021 146.734 192.109 147.852C193.198 148.954 194.695 149.506 196.6 149.506C198.29 149.506 199.944 148.976 201.562 147.916V153.373ZM228.074 154.168H219.932L212.906 143.254H212.82V154.168H206.031V121.598H212.82V142.33H212.906L219.459 132.168H227.516L219.631 142.502L228.074 154.168Z" fill="#7D7D7D"/>
</svg>
