<svg width="33" height="32" viewBox="0 0 33 32" fill="none" xmlns="http://www.w3.org/2000/svg">
<rect width="32" height="32" transform="translate(0.416016)" fill="#333333"/>
<path d="M24.9625 25.6635H11.557C8.70792 25.6635 6.39453 23.2745 6.39453 20.3323V19.8168C6.39453 16.8746 8.70792 14.4856 11.557 14.4856H21.2732C22.7709 14.4856 24.0006 13.2282 24.0006 11.6691C24.0006 10.11 22.783 8.85261 21.2732 8.85261H7.6121V6.33789H21.2732C24.1224 6.33789 26.4357 8.72688 26.4357 11.6691C26.4357 14.6113 24.1224 17.0003 21.2732 17.0003H11.557C10.0594 17.0003 8.82967 18.2577 8.82967 19.8168V20.3323C8.82967 21.8789 10.0472 23.1488 11.557 23.1488H24.9625V25.6635Z" fill="#00FF00"/>
<path d="M7.61231 11.7065C9.81121 11.7065 11.5938 9.86572 11.5938 7.59497C11.5938 5.32421 9.81121 3.4834 7.61231 3.4834C5.41342 3.4834 3.63086 5.32421 3.63086 7.59497C3.63086 9.86572 5.41342 11.7065 7.61231 11.7065Z" fill="white"/>
<path d="M25.2178 28.5171C27.4167 28.5171 29.1992 26.6763 29.1992 24.4055C29.1992 22.1348 27.4167 20.2939 25.2178 20.2939C23.0189 20.2939 21.2363 22.1348 21.2363 24.4055C21.2363 26.6763 23.0189 28.5171 25.2178 28.5171Z" fill="#00FF00"/>
</svg>
