<svg width="27" height="27" viewBox="0 0 27 27" fill="none" xmlns="http://www.w3.org/2000/svg">
<rect width="26.88" height="26.88" rx="8.96" fill="#353535"/>
<path d="M13.4414 12.6519V10.0269" stroke="#FAFAFF" stroke-width="1.176" stroke-linecap="round" stroke-linejoin="round"/>
<path d="M13.4414 7.92686V7.40186" stroke="#FAFAFF" stroke-width="1.176" stroke-linecap="round" stroke-linejoin="round"/>
<path d="M9.37227 9.3708L8.97852 8.97705" stroke="#FAFAFF" stroke-width="1.176" stroke-linecap="round" stroke-linejoin="round"/>
<path d="M13.4406 15.0146C14.0205 15.0146 14.4906 14.5444 14.4906 13.9646C14.4906 13.3847 14.0205 12.9146 13.4406 12.9146C12.8607 12.9146 12.3906 13.3847 12.3906 13.9646C12.3906 14.5444 12.8607 15.0146 13.4406 15.0146Z" stroke="#FAFAFF" stroke-width="1.176" stroke-miterlimit="10"/>
<path d="M13.441 8.18945C12.2988 8.18945 11.1823 8.52815 10.2326 9.16272C9.28291 9.79728 8.54271 10.6992 8.10561 11.7545C7.66852 12.8097 7.55415 13.9709 7.77698 15.0911C7.99981 16.2113 8.54983 17.2403 9.35748 18.048C10.1651 18.8556 11.1941 19.4057 12.3144 19.6285C13.4346 19.8513 14.5958 19.737 15.651 19.2999C16.7063 18.8628 17.6082 18.1226 18.2428 17.1729C18.8773 16.2232 19.216 15.1066 19.216 13.9645C19.216 12.4328 18.6076 10.9639 17.5246 9.88091C16.4415 8.79789 14.9726 8.18945 13.441 8.18945Z" stroke="#FAFAFF" stroke-width="1.176" stroke-miterlimit="10"/>
</svg>
